<svg width="50" height="50" viewBox="0 0 50 50" fill="none" xmlns="http://www.w3.org/2000/svg">
<path d="M24.9138 0C11.781 0 1.02235 10.1263 0 22.9952L13.3996 28.5353C14.5349 27.7588 15.9065 27.3038 17.3821 27.3038C17.5144 27.3038 17.6461 27.3083 17.7766 27.3157L23.7355 18.6786C23.7355 18.6373 23.7349 18.5972 23.7349 18.5565C23.7349 13.3577 27.9639 9.12821 33.1632 9.12821C38.362 9.12821 42.591 13.3577 42.591 18.5565C42.591 23.7553 38.362 27.9854 33.1632 27.9854C33.0915 27.9854 33.0202 27.9837 32.949 27.982L24.4504 34.046C24.4549 34.1562 24.4589 34.2686 24.4589 34.3805C24.4589 38.2834 21.2845 41.4573 17.3821 41.4573C13.9568 41.4573 11.0927 39.0125 10.4439 35.7748L0.86128 31.8131C3.82829 42.3067 13.4691 50 24.9138 50C38.7214 50 49.9141 38.8068 49.9141 25.0008C49.9141 11.1927 38.7209 0 24.9138 0Z" fill="#76808C"/>
<path d="M15.6662 37.9348L12.5952 36.666C13.1394 37.7991 14.081 38.748 15.3311 39.2691C18.0336 40.3948 21.1492 39.1125 22.2756 36.4077C22.8209 35.1 22.8243 33.656 22.2835 32.3449C21.7438 31.0332 20.7254 30.0103 19.4159 29.4644C18.1167 28.9235 16.7247 28.9433 15.5018 29.405L18.6739 30.7167C20.6672 31.5475 21.6098 33.8363 20.7791 35.8296C19.95 37.8234 17.6595 38.7661 15.6662 37.9348Z" fill="#76808C"/>
<path d="M39.4451 18.5556C39.4451 15.0918 36.6273 12.2734 33.163 12.2734C29.6992 12.2734 26.8809 15.0918 26.8809 18.5556C26.8809 22.0199 29.6992 24.8372 33.163 24.8372C36.6273 24.8366 39.4451 22.0193 39.4451 18.5556ZM28.4542 18.5448C28.4542 15.9384 30.5673 13.8259 33.1737 13.8259C35.7802 13.8259 37.8933 15.9384 37.8933 18.5448C37.8933 21.1513 35.7802 23.2638 33.1737 23.2638C30.5673 23.2638 28.4542 21.1507 28.4542 18.5448Z" fill="#76808C"/>
</svg>
